<svg width="84.436523" height="40.623169" viewBox="0 0 84.4365 40.6232" fill="none" xmlns="http://www.w3.org/2000/svg" xmlns:xlink="http://www.w3.org/1999/xlink">
	<desc>
			Created with Pixso.
	</desc>
	<defs/>
	<path id="Vector" d="M13.14 12.4L13.14 12.4C15.54 12.4 17.48 14.13 17.48 16.26L17.48 16.26C17.48 18.39 15.54 20.12 13.14 20.12L13.14 20.12C10.74 20.12 8.8 18.39 8.8 16.26L8.8 16.26C8.8 14.13 10.74 12.4 13.14 12.4Z" fill="currentColor" fill-opacity="1.000000" fill-rule="evenodd"/>
	<path id="Vector" d="M45.19 11.16C45.18 8.2 43.86 5.37 41.5 3.27C39.15 1.18 35.96 0 32.62 0L32.62 0C29.29 0 26.1 1.18 23.74 3.27C21.39 5.37 20.06 8.2 20.05 11.16L20.05 27.49C20.05 27.49 45.19 25 45.19 11.17L45.19 11.16Z" fill="currentColor" fill-opacity="1.000000" fill-rule="nonzero"/>
	<path id="Vector" d="M0 32.84C0 34.9 0.92 36.88 2.56 38.33C4.2 39.79 6.42 40.61 8.74 40.62C11.06 40.61 13.28 39.79 14.91 38.34C16.55 36.88 17.48 34.91 17.48 32.85L17.48 21.49C17.48 21.49 0 23.22 0 32.84ZM8.74 34.88C8.29 34.88 7.84 34.76 7.47 34.54C7.09 34.31 6.8 34 6.62 33.62C6.45 33.25 6.41 32.84 6.49 32.45C6.58 32.05 6.8 31.69 7.12 31.41C7.44 31.12 7.85 30.93 8.29 30.85C8.74 30.77 9.2 30.81 9.62 30.96C10.03 31.12 10.39 31.38 10.64 31.71C10.89 32.05 11.03 32.44 11.03 32.84C11.03 33.11 10.97 33.38 10.86 33.63C10.74 33.87 10.57 34.1 10.36 34.29C10.15 34.48 9.9 34.63 9.62 34.73C9.34 34.83 9.04 34.89 8.74 34.89L8.74 34.88Z" fill="currentColor" fill-opacity="1.000000" fill-rule="nonzero"/>
	<path id="FOSTER PETERS" d="M30.41 34.57Q30.64 34.1 30.64 33.47L30.64 33.28Q30.64 32.65 30.41 32.17Q30.24 31.81 29.96 31.57Q29.87 31.5 29.77 31.43Q29.68 31.38 29.59 31.34Q29.24 31.18 28.82 31.18Q28.4 31.18 28.05 31.34Q27.96 31.38 27.87 31.43Q27.77 31.5 27.68 31.57Q27.4 31.81 27.23 32.17Q27 32.65 27 33.28L27 33.49Q27.01 34.1 27.24 34.58Q27.4 34.92 27.67 35.15Q27.77 35.24 27.88 35.31Q27.97 35.36 28.07 35.41Q28.42 35.56 28.83 35.56Q29.26 35.56 29.61 35.39Q29.7 35.35 29.78 35.3Q29.89 35.23 30 35.14Q30.25 34.91 30.41 34.57ZM33.41 34.11Q33.49 34.22 33.49 34.38Q33.49 34.51 33.43 34.61Q33.39 34.68 33.31 34.74Q33.14 34.87 32.82 34.87Q32.33 34.87 32.12 34.62Q31.98 34.45 31.98 34.16L31.1 34.16Q31.1 34.47 31.22 34.72Q31.26 34.81 31.31 34.89Q31.31 34.89 31.32 34.9Q31.53 35.2 31.93 35.38Q32.33 35.56 32.82 35.56Q33.53 35.56 33.95 35.25Q34.13 35.11 34.23 34.93Q34.37 34.69 34.37 34.38Q34.37 34.1 34.26 33.87Q34.18 33.69 34.03 33.55Q33.68 33.21 32.93 32.99Q32.53 32.86 32.32 32.72Q32.17 32.62 32.13 32.49Q32.11 32.43 32.11 32.37Q32.11 32.26 32.15 32.18Q32.2 32.08 32.29 32.01Q32.47 31.88 32.79 31.88Q33.12 31.88 33.31 32.04Q33.35 32.08 33.39 32.13Q33.49 32.28 33.49 32.5L34.37 32.5Q34.37 32.23 34.28 32.01Q34.23 31.91 34.17 31.81Q34.13 31.75 34.08 31.69Q33.9 31.47 33.62 31.34Q33.26 31.18 32.8 31.18Q32.35 31.18 31.98 31.33Q31.62 31.48 31.42 31.75Q31.34 31.86 31.3 31.99Q31.23 32.17 31.23 32.37Q31.23 32.57 31.29 32.75Q31.45 33.15 31.96 33.43Q32.22 33.57 32.68 33.72Q33.14 33.87 33.31 34Q33.37 34.05 33.41 34.11ZM67.73 34.11Q67.81 34.22 67.81 34.38Q67.81 34.51 67.75 34.61Q67.71 34.68 67.63 34.74Q67.45 34.87 67.14 34.87Q66.65 34.87 66.44 34.62Q66.3 34.45 66.3 34.16L65.42 34.16Q65.42 34.47 65.53 34.72Q65.57 34.81 65.63 34.89Q65.63 34.89 65.64 34.9Q65.85 35.2 66.24 35.38Q66.65 35.56 67.14 35.56Q67.85 35.56 68.27 35.25Q68.45 35.11 68.55 34.93Q68.69 34.69 68.69 34.38Q68.69 34.1 68.58 33.87Q68.49 33.69 68.35 33.55Q68 33.21 67.25 32.99Q66.85 32.86 66.64 32.72Q66.49 32.62 66.44 32.49Q66.43 32.43 66.43 32.37Q66.43 32.26 66.47 32.18Q66.51 32.08 66.61 32.01Q66.78 31.88 67.11 31.88Q67.44 31.88 67.62 32.04Q67.67 32.08 67.71 32.13Q67.81 32.28 67.81 32.5L68.69 32.5Q68.69 32.23 68.59 32.01Q68.55 31.91 68.49 31.81Q68.45 31.75 68.4 31.69Q68.22 31.47 67.94 31.34Q67.58 31.18 67.12 31.18Q66.67 31.18 66.3 31.33Q65.94 31.48 65.74 31.75Q65.66 31.86 65.62 31.99Q65.55 32.17 65.55 32.37Q65.55 32.57 65.61 32.75Q65.77 33.15 66.27 33.43Q66.54 33.57 67 33.72Q67.45 33.87 67.63 34Q67.69 34.05 67.73 34.11ZM24.73 33.76L26.41 33.76L26.41 33.05L24.73 33.05L24.73 31.95L26.62 31.95L26.62 31.24L23.85 31.24L23.85 35.5L24.73 35.5L24.73 33.76ZM36.87 31.95L38.18 31.95L38.18 31.24L34.7 31.24L34.7 31.95L35.99 31.95L35.99 35.5L36.87 35.5L36.87 31.95ZM39.56 33.65L41.24 33.65L41.24 32.97L39.56 32.97L39.56 31.95L41.53 31.95L41.53 31.24L38.68 31.24L38.68 35.5L41.54 35.5L41.54 34.8L39.56 34.8L39.56 33.65ZM42.93 33.94L43.63 33.94L44.43 35.5L45.37 35.5L45.37 35.46L44.45 33.72Q44.83 33.55 45.02 33.25Q45.21 32.96 45.21 32.53Q45.21 32.1 45.01 31.8Q44.93 31.68 44.8 31.57Q44.39 31.24 43.64 31.24L42.05 31.24L42.05 35.5L42.93 35.5L42.93 33.94ZM48.25 35.5L48.25 34L49.02 34Q49.78 34 50.21 33.64Q50.36 33.51 50.46 33.35Q50.64 33.06 50.64 32.65Q50.64 32.32 50.52 32.05Q50.49 31.98 50.45 31.91Q50.39 31.82 50.31 31.73Q50.14 31.54 49.88 31.41Q49.52 31.24 49.04 31.24L47.37 31.24L47.37 35.5L48.25 35.5ZM52.12 33.65L53.81 33.65L53.81 32.97L52.12 32.97L52.12 31.95L54.1 31.95L54.1 31.24L51.24 31.24L51.24 35.5L54.1 35.5L54.1 34.8L52.12 34.8L52.12 33.65ZM56.58 31.95L57.89 31.95L57.89 31.24L54.41 31.24L54.41 31.95L55.7 31.95L55.7 35.5L56.58 35.5L56.58 31.95ZM59.27 33.65L60.96 33.65L60.96 32.97L59.27 32.97L59.27 31.95L61.24 31.95L61.24 31.24L58.39 31.24L58.39 35.5L61.25 35.5L61.25 34.8L59.27 34.8L59.27 33.65ZM62.64 33.94L63.34 33.94L64.14 35.5L65.09 35.5L65.09 35.46L64.16 33.72Q64.55 33.55 64.74 33.25Q64.93 32.96 64.93 32.53Q64.93 32.1 64.73 31.8Q64.64 31.68 64.52 31.57Q64.11 31.24 63.35 31.24L61.77 31.24L61.77 35.5L62.64 35.5L62.64 33.94ZM29.51 32.25Q29.75 32.6 29.75 33.27L29.75 33.48Q29.74 34.15 29.51 34.49Q29.4 34.65 29.26 34.73Q29.07 34.84 28.83 34.84Q28.58 34.84 28.4 34.73Q28.24 34.64 28.14 34.48Q27.9 34.12 27.9 33.47L27.9 33.26Q27.9 32.59 28.14 32.25Q28.24 32.1 28.39 32.01Q28.57 31.9 28.82 31.9Q29.07 31.9 29.25 32.01Q29.4 32.1 29.51 32.25ZM43.64 33.23L42.93 33.23L42.93 31.95L43.64 31.95Q43.99 31.95 44.16 32.12Q44.19 32.15 44.21 32.18Q44.33 32.34 44.33 32.6Q44.33 32.82 44.23 32.97Q44.19 33.02 44.15 33.06Q44.15 33.06 44.14 33.07Q43.96 33.23 43.64 33.23ZM49.04 33.29L48.25 33.29L48.25 31.95L49.06 31.95Q49.32 31.95 49.49 32.08Q49.53 32.11 49.57 32.15Q49.61 32.19 49.64 32.24Q49.75 32.41 49.75 32.65Q49.75 32.9 49.64 33.05Q49.61 33.09 49.57 33.12Q49.39 33.29 49.04 33.29ZM63.35 33.23L62.64 33.23L62.64 31.95L63.35 31.95Q63.7 31.95 63.88 32.12Q63.9 32.15 63.92 32.18Q64.05 32.34 64.05 32.6Q64.05 32.82 63.94 32.97Q63.91 33.02 63.87 33.06Q63.86 33.06 63.86 33.07Q63.68 33.23 63.35 33.23Z" fill="currentColor" fill-opacity="1.000000" fill-rule="evenodd"/>
</svg>
