<svg width="93.793579" height="43.925537" viewBox="0 0 93.7936 43.9255" fill="none" xmlns="http://www.w3.org/2000/svg" xmlns:xlink="http://www.w3.org/1999/xlink">
	<desc>
			Created with Pixso.
	</desc>
	<defs/>
	<path id="Vector" d="M47.42 20.64C46.98 20.05 46.76 19.35 46.82 18.65L46.82 15.76C46.82 14.88 47.02 14.21 47.42 13.75C47.82 13.29 48.51 13.06 49.48 13.06C50.4 13.06 51.05 13.26 51.44 13.65C51.86 14.15 52.06 14.76 52.01 15.37L52.01 16.05L50.37 16.05L50.37 15.37C50.38 15.14 50.36 14.92 50.32 14.69C50.3 14.54 50.22 14.4 50.09 14.3C49.92 14.18 49.71 14.13 49.5 14.14C49.27 14.13 49.05 14.18 48.87 14.3C48.73 14.42 48.63 14.58 48.6 14.74C48.55 14.98 48.53 15.22 48.53 15.46L48.53 18.96C48.51 19.29 48.58 19.63 48.74 19.94C48.83 20.04 48.94 20.12 49.07 20.18C49.2 20.23 49.35 20.25 49.5 20.23C49.71 20.25 49.91 20.19 50.08 20.07C50.21 19.96 50.3 19.81 50.32 19.65C50.36 19.42 50.38 19.18 50.37 18.95L50.37 18.24L52.01 18.24L52.01 18.89C52.06 19.53 51.86 20.16 51.45 20.7C51.07 21.13 50.43 21.34 49.48 21.34C48.54 21.34 47.82 21.11 47.42 20.64Z" fill="currentColor" fill-opacity="1.000000" fill-rule="nonzero"/>
	<path id="Vector" d="M54.25 20.67C53.84 20.22 53.63 19.56 53.63 18.7L53.63 15.67C53.63 14.81 53.84 14.16 54.25 13.72C54.67 13.28 55.36 13.06 56.33 13.06C57.3 13.06 57.99 13.28 58.4 13.72C58.81 14.16 59.03 14.81 59.03 15.67L59.03 18.7C59.03 19.55 58.81 20.21 58.39 20.66C57.97 21.11 57.29 21.34 56.33 21.34C55.38 21.34 54.67 21.11 54.25 20.67ZM57.1 19.94C57.24 19.66 57.31 19.35 57.29 19.04L57.29 15.33C57.31 15.03 57.25 14.72 57.1 14.45C57.02 14.34 56.9 14.26 56.76 14.21C56.63 14.15 56.48 14.14 56.33 14.15C56.18 14.14 56.03 14.15 55.9 14.21C55.76 14.26 55.64 14.34 55.56 14.45C55.41 14.72 55.34 15.02 55.36 15.33L55.36 19.06C55.34 19.37 55.41 19.68 55.56 19.96C55.66 20.05 55.77 20.13 55.91 20.18C56.04 20.23 56.18 20.26 56.33 20.26C56.47 20.26 56.62 20.23 56.75 20.18C56.88 20.13 57 20.05 57.1 19.96L57.1 19.94Z" fill="currentColor" fill-opacity="1.000000" fill-rule="nonzero"/>
	<path id="Vector" d="M61 13.15L62.77 13.15L64.09 18.75L65.45 13.15L67.17 13.15L67.34 21.23L66.07 21.23L65.94 15.62L64.63 21.23L63.61 21.23L62.25 15.6L62.12 21.23L60.84 21.23L61 13.15Z" fill="currentColor" fill-opacity="1.000000" fill-rule="nonzero"/>
	<path id="Vector" d="M69.33 13.15L72.08 13.15C73.66 13.15 74.46 13.92 74.46 15.45C74.46 16.91 73.62 17.64 71.95 17.64L71.01 17.64L71.01 21.23L69.32 21.23L69.33 13.15ZM71.68 16.6C71.84 16.62 72.01 16.61 72.18 16.56C72.34 16.52 72.49 16.45 72.61 16.35C72.81 16.08 72.89 15.76 72.86 15.44C72.86 15.19 72.84 14.94 72.77 14.7C72.75 14.62 72.71 14.55 72.65 14.48C72.59 14.42 72.52 14.36 72.43 14.32C72.2 14.22 71.94 14.18 71.68 14.19L71.02 14.19L71.02 16.6L71.68 16.6Z" fill="currentColor" fill-opacity="1.000000" fill-rule="nonzero"/>
	<path id="Vector" d="M76.9 13.15L78.73 13.15L80.6 21.23L79.02 21.23L78.65 19.37L77.02 19.37L76.64 21.23L75.03 21.23L76.9 13.15ZM78.46 18.43L77.83 15.04L77.19 18.43L78.46 18.43Z" fill="currentColor" fill-opacity="1.000000" fill-rule="nonzero"/>
	<path id="Vector" d="M82.11 13.15L83.3 13.15L85.58 17.76L85.58 13.15L86.99 13.15L86.99 21.23L85.86 21.23L83.57 16.42L83.57 21.23L82.11 21.23L82.11 13.15Z" fill="currentColor" fill-opacity="1.000000" fill-rule="nonzero"/>
	<path id="Vector" d="M90.29 18.15L88.4 13.16L89.99 13.16L91.15 16.37L92.23 13.16L93.79 13.16L91.92 18.15L91.92 21.23L90.29 21.23L90.29 18.15Z" fill="currentColor" fill-opacity="1.000000" fill-rule="nonzero"/>
	<path id="Vector" d="M50.04 24.76L50.04 25.18L48.66 25.18L48.66 28.46L48.08 28.46L48.08 25.18L46.68 25.18L46.68 24.76L50.04 24.76Z" fill="currentColor" fill-opacity="1.000000" fill-rule="nonzero"/>
	<path id="Vector" d="M54.39 28.46L53.94 28.46C53.89 28.47 53.85 28.45 53.81 28.43C53.78 28.41 53.75 28.38 53.74 28.34L53.34 27.46L51.42 27.46L51.01 28.34C51 28.38 50.98 28.42 50.95 28.44C50.92 28.47 50.87 28.48 50.83 28.48L50.38 28.48L52.08 24.78L52.67 24.78L54.39 28.46ZM51.57 27.09L53.18 27.09L52.5 25.58C52.45 25.47 52.41 25.35 52.37 25.23C52.35 25.3 52.33 25.37 52.31 25.43L52.25 25.58L51.57 27.09Z" fill="currentColor" fill-opacity="1.000000" fill-rule="nonzero"/>
	<path id="Vector" d="M57.32 28.1C57.42 28.11 57.53 28.11 57.64 28.1C57.73 28.09 57.82 28.08 57.91 28.06C57.99 28.04 58.07 28.02 58.15 27.99C58.23 27.96 58.3 27.93 58.38 27.9L58.38 27.07L57.7 27.07C57.68 27.07 57.67 27.06 57.65 27.06C57.63 27.05 57.62 27.05 57.61 27.04C57.6 27.03 57.59 27.02 57.58 27.01C57.58 26.99 57.57 26.98 57.57 26.97L57.57 26.68L58.89 26.68L58.89 28.1C58.78 28.17 58.67 28.23 58.55 28.28C58.43 28.33 58.31 28.37 58.18 28.41C58.04 28.44 57.89 28.47 57.75 28.48C57.59 28.5 57.42 28.51 57.26 28.51C56.96 28.51 56.67 28.46 56.4 28.37C56.14 28.28 55.91 28.15 55.72 27.98C55.53 27.81 55.38 27.61 55.28 27.39C55.17 27.15 55.12 26.89 55.13 26.63C55.12 26.36 55.17 26.1 55.28 25.85C55.38 25.63 55.52 25.43 55.72 25.26C55.91 25.1 56.14 24.97 56.4 24.88C56.69 24.79 57 24.74 57.31 24.74C57.46 24.74 57.62 24.75 57.78 24.77C57.92 24.79 58.05 24.83 58.18 24.87C58.3 24.91 58.42 24.96 58.52 25.02C58.63 25.07 58.73 25.14 58.82 25.21L58.65 25.44C58.64 25.46 58.62 25.48 58.6 25.49C58.58 25.5 58.55 25.51 58.52 25.51C58.48 25.51 58.45 25.5 58.42 25.48C58.37 25.46 58.31 25.43 58.25 25.39C58.18 25.35 58.1 25.32 58.02 25.29C57.92 25.26 57.82 25.23 57.71 25.21C57.57 25.19 57.42 25.18 57.28 25.18C57.05 25.17 56.83 25.21 56.62 25.28C56.43 25.34 56.26 25.44 56.12 25.57C55.98 25.71 55.88 25.86 55.81 26.03C55.66 26.43 55.66 26.87 55.81 27.27C55.88 27.44 56 27.6 56.15 27.73C56.29 27.86 56.46 27.96 56.64 28.03C56.86 28.09 57.09 28.12 57.32 28.1Z" fill="currentColor" fill-opacity="1.000000" fill-rule="nonzero"/>
	<path id="Vector" d="M62.73 28.04L64.59 28.04L64.59 28.46L62.16 28.46L62.16 24.76L62.74 24.76L62.73 28.04Z" fill="currentColor" fill-opacity="1.000000" fill-rule="nonzero"/>
	<path id="Vector" d="M66.52 28.46L65.93 28.46L65.93 24.76L66.52 24.76L66.52 28.46Z" fill="currentColor" fill-opacity="1.000000" fill-rule="nonzero"/>
	<path id="Vector" d="M68.68 24.78C68.71 24.79 68.74 24.82 68.76 24.85L71.25 27.64C71.24 27.59 71.24 27.55 71.25 27.51C71.25 27.46 71.25 27.42 71.25 27.39L71.25 24.75L71.75 24.75L71.75 28.46L71.46 28.46C71.42 28.47 71.38 28.46 71.34 28.44C71.3 28.43 71.27 28.4 71.24 28.37L68.76 25.58C68.76 25.63 68.76 25.67 68.76 25.71C68.76 25.75 68.76 25.79 68.76 25.82L68.76 28.46L68.28 28.46L68.28 24.76L68.58 24.76C68.61 24.76 68.65 24.77 68.68 24.78Z" fill="currentColor" fill-opacity="1.000000" fill-rule="nonzero"/>
	<path id="Vector" d="M76.03 24.76L76.03 25.17L73.97 25.17L73.97 26.39L75.64 26.39L75.64 26.78L73.97 26.78L73.97 28.05L76.03 28.05L76.03 28.46L73.37 28.46L73.37 24.76L76.03 24.76Z" fill="currentColor" fill-opacity="1.000000" fill-rule="nonzero"/>
	<path id="Vector" d="M15.16 1.88L40.95 8.21L40.95 30.37L15.16 24.04L15.16 1.88ZM13.5 0L13.5 25.12L42.6 32.26L42.6 7.13L13.5 0Z" fill="currentColor" fill-opacity="1.000000" fill-rule="nonzero"/>
	<path id="Vector" d="M29.1 43.92L0 36.78L0 11.66L29.1 18.79L29.1 43.92Z" fill="currentColor" fill-opacity="1.000000" fill-rule="nonzero"/>
	<path id="Vector" d="M13.98 1.6L39.44 7.84L28.62 17.19L3.15 10.95L13.98 1.6ZM13.5 0L0 11.66L29.1 18.79L42.6 7.13L13.5 0Z" fill="currentColor" fill-opacity="1.000000" fill-rule="nonzero"/>
	<path id="Vector" d="M30.74 42.51L42.6 32.26L30.74 29.35L30.74 42.51Z" fill="currentColor" fill-opacity="1.000000" fill-rule="nonzero"/>
</svg>
