<svg width="106.000000" height="60.000000" viewBox="0 0 106 60" fill="none" xmlns="http://www.w3.org/2000/svg" xmlns:xlink="http://www.w3.org/1999/xlink">
	<desc>
			Created with Pixso.
	</desc>
	<defs>
		<clipPath id="clip1_2407">
			<rect id="Logo " width="106.000000" height="60.000000" fill="white" fill-opacity="0"/>
		</clipPath>
	</defs>
	<g clip-path="url(#clip1_2407)">
		<path id="Union" d="M49.9768 5.93457L50.1135 5.93457C50.3665 5.93457 50.6396 5.95996 50.9104 5.98279C52.103 6.06689 53.2874 6.24548 54.4519 6.51685L54.4519 3.65356C53.2527 3.35266 52.0295 3.15784 50.7966 3.07117C50.3286 3.03564 49.8301 3.0127 49.3191 3L48.8916 3C46.4167 3.00928 43.9526 3.32703 41.5554 3.94592C38.8252 4.62683 36.2046 5.69275 33.7715 7.11194L33.7715 35.5085C36.1143 34.2357 38.6069 33.2643 41.1912 32.6173C43.2314 32.0967 45.3174 31.7765 47.4194 31.6611L47.5029 31.6611C47.8545 31.6433 48.2061 31.6332 48.5679 31.6306L48.5679 28.7216C45.8367 28.7567 43.1191 29.1178 40.4727 29.7972C39.4937 30.0515 38.5476 30.3262 37.6597 30.6312L36.6477 30.9746L36.6477 8.8335L37.0803 8.62488C40.3816 7.05957 43.9521 6.14868 47.5964 5.94214C47.6267 5.93994 47.6572 5.93994 47.6875 5.94214C48.0898 5.92175 48.4944 5.91162 48.8916 5.91162L49.3469 5.91162C49.5569 5.91675 49.7668 5.92175 49.9768 5.93457ZM55.1526 8.86133C55.7876 8.90967 56.4453 8.93262 57.1107 8.93262C59.7124 8.9231 62.303 8.59082 64.8237 7.94336C67.4067 7.29395 69.8984 6.32178 72.241 5.04956L72.241 32.9402C69.8065 34.3585 67.1852 35.4243 64.4545 36.1061C62.057 36.7227 59.5929 37.0396 57.1183 37.0496C55.2432 37.0647 53.3735 36.8442 51.5527 36.3934L51.5527 8.32227C51.9829 8.42151 52.4255 8.51306 52.876 8.58923C53.6145 8.71387 54.3938 8.80542 55.1526 8.86133ZM69.3469 9.07751L68.3351 9.41833C67.4041 9.73108 66.4656 10.0107 65.522 10.26C62.7748 10.9659 59.9513 11.3281 57.1157 11.3381C56.4554 11.3381 55.8484 11.3204 55.2615 11.2822L54.4543 11.2289L54.4543 34.0057L55.1477 34.0668C55.79 34.1227 56.4529 34.1506 57.1207 34.1506C59.3542 34.1411 61.578 33.8533 63.7411 33.2937C65.5222 32.8469 67.2551 32.2242 68.9143 31.4348L69.3469 31.2263L69.3469 9.07751Z" clip-rule="evenodd" fill="#AFB1B8" fill-opacity="1.000000" fill-rule="evenodd"/>
		<path id="Vector" d="M35.73 45.21C35.59 45.06 35.41 44.94 35.22 44.86C35.02 44.78 34.82 44.74 34.61 44.75C34.38 44.75 34.16 44.79 33.96 44.87C33.77 44.95 33.59 45.06 33.45 45.21C33.31 45.35 33.2 45.53 33.12 45.72C33.04 45.92 33.01 46.13 33.01 46.34L33.01 50.14C33 50.41 33.05 50.67 33.16 50.92C33.25 51.11 33.38 51.28 33.54 51.42C33.69 51.55 33.87 51.64 34.06 51.69C34.24 51.75 34.43 51.77 34.62 51.77C34.84 51.78 35.04 51.73 35.24 51.64C35.43 51.56 35.6 51.44 35.74 51.29C35.88 51.14 36 50.97 36.07 50.78C36.15 50.59 36.2 50.38 36.2 50.18L36.2 49.75L35.2 49.75L35.2 50.09C35.21 50.21 35.19 50.32 35.15 50.43C35.11 50.51 35.06 50.58 35 50.64C34.94 50.69 34.87 50.73 34.79 50.75C34.73 50.77 34.66 50.79 34.59 50.79C34.5 50.8 34.41 50.78 34.33 50.75C34.24 50.71 34.17 50.66 34.12 50.58C34.03 50.43 33.98 50.25 33.99 50.07L33.99 46.54C33.98 46.34 34.02 46.15 34.11 45.97C34.16 45.89 34.24 45.83 34.32 45.79C34.41 45.75 34.5 45.73 34.6 45.74C34.68 45.74 34.77 45.76 34.84 45.79C34.92 45.83 34.99 45.89 35.04 45.96C35.15 46.1 35.21 46.28 35.2 46.46L35.2 46.79L36.19 46.79L36.19 46.41C36.19 46.18 36.15 45.95 36.06 45.74C35.99 45.54 35.88 45.36 35.73 45.21Z" fill="#AFB1B8" fill-opacity="1.000000" fill-rule="nonzero"/>
		<path id="Vector" d="M41.62 45.16C41.31 44.9 40.91 44.75 40.5 44.75C40.29 44.75 40.09 44.78 39.9 44.85C39.71 44.92 39.53 45.03 39.38 45.16C39.22 45.31 39.08 45.49 39 45.7C38.9 45.93 38.85 46.18 38.85 46.43L38.85 50.07C38.84 50.33 38.89 50.58 39 50.81C39.09 51.01 39.22 51.18 39.38 51.32C39.53 51.46 39.71 51.57 39.9 51.64C40.09 51.71 40.29 51.75 40.5 51.75C40.7 51.75 40.9 51.71 41.09 51.64C41.29 51.57 41.47 51.46 41.62 51.32C41.78 51.18 41.91 51.01 42 50.81C42.1 50.58 42.15 50.33 42.14 50.07L42.14 46.43C42.15 46.18 42.1 45.93 42 45.7C41.91 45.5 41.78 45.31 41.62 45.16ZM41.16 50.07C41.17 50.17 41.16 50.26 41.12 50.36C41.09 50.45 41.03 50.53 40.96 50.6C40.83 50.71 40.67 50.77 40.5 50.77C40.33 50.77 40.16 50.71 40.03 50.6C39.96 50.53 39.91 50.45 39.87 50.36C39.84 50.26 39.82 50.17 39.83 50.07L39.83 46.43C39.82 46.33 39.84 46.24 39.87 46.14C39.91 46.05 39.96 45.97 40.03 45.9C40.16 45.79 40.33 45.73 40.5 45.73C40.67 45.73 40.83 45.79 40.96 45.9C41.03 45.97 41.09 46.05 41.12 46.14C41.16 46.24 41.17 46.33 41.16 46.43L41.16 50.07Z" fill="#AFB1B8" fill-opacity="1.000000" fill-rule="nonzero"/>
		<path id="Vector" d="M49.36 51.69L49.36 44.81L48.41 44.81L47.16 48.45L47.14 48.45L45.88 44.81L44.93 44.81L44.93 51.69L45.92 51.69L45.92 47.5L45.93 47.5L46.9 50.47L47.39 50.47L48.36 47.5L48.38 47.5L48.38 51.69L49.36 51.69Z" fill="#AFB1B8" fill-opacity="1.000000" fill-rule="nonzero"/>
		<path id="Vector" d="M54.95 45.29C54.8 45.12 54.61 44.99 54.4 44.91C54.17 44.84 53.93 44.8 53.68 44.81L52.22 44.81L52.22 51.69L53.2 51.69L53.2 49L53.71 49C54.01 49.02 54.32 48.95 54.59 48.82C54.82 48.69 55 48.51 55.13 48.29C55.25 48.11 55.32 47.9 55.36 47.69C55.4 47.43 55.41 47.17 55.41 46.91C55.42 46.58 55.39 46.24 55.31 45.92C55.25 45.68 55.12 45.47 54.95 45.29ZM54.45 47.39C54.44 47.51 54.41 47.64 54.36 47.75C54.3 47.85 54.21 47.94 54.1 47.99C53.96 48.05 53.8 48.08 53.64 48.08L53.19 48.08L53.19 45.73L53.7 45.73C53.85 45.73 54 45.76 54.14 45.82C54.24 45.88 54.32 45.97 54.37 46.07C54.42 46.2 54.45 46.33 54.46 46.46C54.46 46.6 54.46 46.76 54.46 46.92C54.46 47.08 54.47 47.24 54.46 47.39L54.45 47.39Z" fill="#AFB1B8" fill-opacity="1.000000" fill-rule="nonzero"/>
		<path id="Vector" d="M59.6 44.81L58.8 44.81L57.28 51.69L58.26 51.69L58.55 50.21L59.89 50.21L60.18 51.69L61.16 51.69L59.6 44.81ZM58.7 49.28L59.18 46.78L59.2 46.78L59.68 49.28L58.7 49.28Z" fill="#AFB1B8" fill-opacity="1.000000" fill-rule="nonzero"/>
		<path id="Vector" d="M65.94 48.96L65.93 48.96L64.44 44.81L63.5 44.81L63.5 51.69L64.48 51.69L64.48 47.55L64.5 47.55L66 51.69L66.93 51.69L66.93 44.81L65.94 44.81L65.94 48.96Z" fill="#AFB1B8" fill-opacity="1.000000" fill-rule="nonzero"/>
		<path id="Vector" d="M71.94 44.81L71.15 47.54L71.13 47.54L70.34 44.81L69.3 44.81L70.65 48.78L70.65 51.69L71.63 51.69L71.63 48.78L72.98 44.81L71.94 44.81Z" fill="#AFB1B8" fill-opacity="1.000000" fill-rule="nonzero"/>
		<path id="Vector" d="M33 53.64L33.47 53.64L33.47 54.97L33.79 54.97L33.79 53.64L34.26 53.64L34.26 53.37L33 53.37L33 53.64Z" fill="#AFB1B8" fill-opacity="1.000000" fill-rule="nonzero"/>
		<path id="Vector" d="M36.97 53.37L36.35 54.97L36.69 54.97L36.83 54.6L37.46 54.6L37.6 54.97L37.95 54.97L37.31 53.37L36.97 53.37ZM36.92 54.33L37.14 53.74L37.36 54.33L36.92 54.33Z" fill="#AFB1B8" fill-opacity="1.000000" fill-rule="nonzero"/>
		<path id="Vector" d="M40.9 54.38L41.27 54.38L41.27 54.58C41.16 54.67 41.03 54.72 40.89 54.72C40.83 54.72 40.76 54.71 40.71 54.68C40.65 54.66 40.59 54.62 40.55 54.57C40.47 54.44 40.43 54.3 40.43 54.15C40.43 53.79 40.59 53.61 40.9 53.61C40.98 53.61 41.06 53.63 41.12 53.67C41.19 53.72 41.24 53.79 41.26 53.87L41.57 53.81C41.51 53.49 41.28 53.34 40.9 53.34C40.69 53.33 40.49 53.41 40.34 53.54C40.26 53.62 40.19 53.72 40.15 53.83C40.11 53.93 40.1 54.05 40.11 54.16C40.1 54.38 40.17 54.59 40.31 54.76C40.39 54.84 40.48 54.9 40.59 54.94C40.69 54.98 40.81 55 40.92 54.99C41.17 55 41.41 54.91 41.6 54.74L41.6 54.11L40.9 54.11L40.9 54.38Z" fill="#AFB1B8" fill-opacity="1.000000" fill-rule="nonzero"/>
		<path id="Vector" d="M44.92 53.37L44.59 53.37L44.59 54.97L45.71 54.97L45.71 54.7L44.92 54.7L44.92 53.37Z" fill="#AFB1B8" fill-opacity="1.000000" fill-rule="nonzero"/>
		<path id="Vector" d="M47.99 53.37L48.31 53.37L48.31 54.97L47.99 54.97L47.99 53.37Z" fill="#AFB1B8" fill-opacity="1.000000" fill-rule="evenodd"/>
		<path id="Vector" d="M51.63 54.44L50.98 53.37L50.66 53.37L50.66 54.97L50.96 54.97L50.96 53.92L51.61 54.97L51.93 54.97L51.93 53.37L51.63 53.37L51.63 54.44Z" fill="#AFB1B8" fill-opacity="1.000000" fill-rule="nonzero"/>
		<path id="Vector" d="M54.63 54.26L55.43 54.26L55.43 53.99L54.63 53.99L54.63 53.64L55.49 53.64L55.49 53.37L54.31 53.37L54.31 54.97L55.52 54.97L55.52 54.7L54.63 54.7L54.63 54.26Z" fill="#AFB1B8" fill-opacity="1.000000" fill-rule="nonzero"/>
		<path id="Vector" d="M61.91 54L61.28 54L61.28 53.37L60.96 53.37L60.96 54.97L61.28 54.97L61.28 54.27L61.91 54.27L61.91 54.97L62.23 54.97L62.23 53.37L61.91 53.37L61.91 54Z" fill="#AFB1B8" fill-opacity="1.000000" fill-rule="nonzero"/>
		<path id="Vector" d="M64.93 54.26L65.72 54.26L65.72 53.99L64.93 53.99L64.93 53.64L65.79 53.64L65.79 53.37L64.6 53.37L64.6 54.97L65.82 54.97L65.82 54.7L64.93 54.7L64.93 54.26Z" fill="#AFB1B8" fill-opacity="1.000000" fill-rule="nonzero"/>
		<path id="Vector" d="M69.02 54.26C69.3 54.22 69.44 54.07 69.44 53.82C69.45 53.75 69.44 53.68 69.41 53.62C69.38 53.56 69.34 53.5 69.28 53.46C69.14 53.39 68.97 53.36 68.81 53.37L68.14 53.37L68.14 54.97L68.46 54.97L68.46 54.3L68.52 54.3C68.59 54.29 68.66 54.31 68.72 54.33C68.77 54.36 68.81 54.4 68.83 54.45L69.18 54.96L69.57 54.96L69.37 54.65C69.29 54.49 69.16 54.36 69.02 54.26ZM68.69 54.04L68.46 54.04L68.46 53.64L68.71 53.64C68.82 53.63 68.93 53.64 69.04 53.68C69.06 53.7 69.08 53.72 69.09 53.75C69.1 53.78 69.11 53.81 69.11 53.84C69.1 53.88 69.1 53.91 69.08 53.93C69.07 53.96 69.05 53.98 69.02 54C68.92 54.04 68.8 54.05 68.69 54.04Z" fill="#AFB1B8" fill-opacity="1.000000" fill-rule="nonzero"/>
		<path id="Vector" d="M72.1 54.26L72.9 54.26L72.9 53.99L72.1 53.99L72.1 53.64L72.96 53.64L72.96 53.37L71.78 53.37L71.78 54.97L73 54.97L73 54.7L72.1 54.7L72.1 54.26Z" fill="#AFB1B8" fill-opacity="1.000000" fill-rule="nonzero"/>
	</g>
</svg>
